<?xml version="1.0" encoding="UTF-8"?>
<svg xmlns="http://www.w3.org/2000/svg" viewBox="28.54 603.27 234.28 172">
<style>.cls-1{fill:#4cc8fc}.cls-2{fill:#faee40}.cls-3{fill:#e6e6e6}</style>
  <g>
    <rect class="cls-3" x="35.92" y="604.87" width="6.27" height="13.09" transform="translate(-210.97 52.09) rotate(-20.43)"/>
    <polygon class="cls-3" points="43.78 644.63 43.78 622.55 31.8 622.55 31.8 628.82 37.51 628.82 37.51 646.48 28.54 654.14 32.61 658.9 41.52 651.29 47.45 657.37 85.86 657.37 85.86 651.1 50.09 651.1 43.78 644.63"/>
    <polygon class="cls-3" points="85.14 649.08 85.14 642.81 74.57 642.81 74.57 630.21 84.72 630.21 84.72 623.95 67.97 623.95 67.97 615.79 83.71 615.79 83.71 609.52 67.97 609.52 67.97 603.27 61.71 603.27 61.71 609.52 56.43 609.52 56.43 603.52 50.16 603.52 50.16 609.52 49.82 609.52 49.82 615.79 50.16 615.79 50.16 616.15 56.43 616.15 56.43 615.79 61.71 615.79 61.71 620.52 57.92 620.07 57.46 623.95 47.2 623.95 47.2 630.21 56.7 630.21 56.33 633.33 46.16 642.52 50.36 647.17 62.27 636.4 63.01 630.21 68.31 630.21 68.31 649.08 85.14 649.08"/>
    <polygon class="cls-3" points="103.97 652.5 103.97 636.32 109.86 634.79 108.28 628.73 103.97 629.85 103.97 619.12 109.07 619.12 109.07 612.85 103.97 612.85 103.97 603.67 97.7 603.67 97.7 612.85 91.92 612.85 91.92 619.12 97.7 619.12 97.7 631.48 91.13 633.19 92.71 639.25 97.7 637.95 97.7 648.58 91.25 650 92.6 656.12 102.28 653.98 103.97 653.98 103.97 653.61 104.2 653.56 103.97 652.5"/>
    <path class="cls-3" d="M144.98,604.05h-33.84v6.27h4.2l-2.57,4.39,8.02,4.7-11.52,5.6,2.74,5.64,15.28-7.43,11.94,7h5.42v-6.27h-3.72l-6.86-4.02,10.92-5.31v-10.57ZM138.72,610.7l-11.15,5.42-9.89-5.8h21.05v.38Z"/>
    <polygon class="cls-3" points="130.31 639.84 145.15 639.84 145.15 633.58 130.31 633.58 130.31 627.83 124.04 627.83 124.04 633.58 110.63 633.58 110.63 639.84 124.04 639.84 124.04 644.24 108.69 644.24 108.69 650.5 124.04 650.5 124.04 657.18 130.31 657.18 130.31 650.5 145.66 650.5 145.66 644.24 130.31 644.24 130.31 639.84"/>
    <path class="cls-3" d="M151.96,657.18h50.77v-53.06h-50.77v53.06ZM183.72,650.91l.71-1.78-12.52-4.97-2.31,5.82,2.34.93h-13.7v-13.94l16.12-6.53,15.2,5.66h6.91v14.81h-12.75ZM196.46,610.39v19.45h-5.78l-7.73-2.88,10.72-4.34v-8.88h-24.79v-1.69h-6.27v7.96h20.82l-9.18,3.72-9.02-3.36-2.19,5.87,2.6.97-7.43,3.01v-19.82h38.23Z"/>
    <rect class="cls-3" x="174.21" y="632.57" width="6.27" height="12.85" transform="translate(-480.36 554.27) rotate(-67.15)"/>
    <polygon class="cls-3" points="245.67 617.12 245.67 604.43 239.41 604.43 239.41 617.12 222.16 617.12 222.16 606.21 215.89 606.21 215.89 617.12 210.31 617.12 210.31 623.39 215.89 623.39 215.89 633.95 213.27 633.95 213.27 640.22 213.81 640.22 206.3 653.85 211.78 656.87 220.97 640.22 248.8 640.22 248.8 657.56 255.06 657.56 255.06 633.95 222.16 633.95 222.16 623.39 260.88 623.39 260.88 617.12 245.67 617.12"/>
  </g>
  <g>
    <path class="cls-3" d="M67.65,671.07s-.01-.07-.03-.09c-.02-.02-.05-.03-.09-.03h-8.13s-.07.01-.09.03c-.02.02-.03.05-.03.09v28.53c0,2.18-.39,4.05-1.16,5.62-.77,1.57-1.87,2.77-3.28,3.58-1.42.82-3.04,1.23-4.88,1.23s-3.45-.42-4.85-1.26c-1.4-.84-2.48-2.03-3.25-3.58-.77-1.55-1.16-3.41-1.16-5.59v-28.53s-.01-.07-.03-.09c-.02-.02-.05-.03-.09-.03h-8.13s-.07.01-.09.03c-.02.02-.03.05-.03.09v28.53c0,3.39.79,6.52,2.38,9.36,1.58,2.85,3.73,5.1,6.44,6.76,2.71,1.66,5.65,2.48,8.82,2.48s6.11-.83,8.82-2.48c2.71-1.65,4.87-3.91,6.47-6.76,1.6-2.85,2.41-5.97,2.41-9.36v-28.53Z"/>
    <path class="cls-3" d="M74.03,717.51h8.13s.07,0,.09-.03c.02-.02.03-.05.03-.09v-18.04h7.13c2.84,0,5.4-.7,7.69-2.11,2.29-1.4,4.09-3.21,5.38-5.41,1.29-2.2,1.94-4.45,1.94-6.76s-.65-4.61-1.94-6.79c-1.29-2.18-3.09-3.95-5.38-5.31-2.29-1.36-4.86-2.04-7.69-2.04h-15.39s-.07.01-.09.03c-.02.02-.03.05-.03.09v46.32s0,.07.03.09c.02.02.05.03.09.03ZM89.42,679.11c1.42,0,2.63.26,3.63.79,1,.52,1.75,1.24,2.25,2.14.5.9.75,1.92.75,3.05s-.25,2.16-.75,3.08c-.5.92-1.25,1.66-2.25,2.2-1,.55-2.21.82-3.63.82h-7.13v-12.07h7.13Z"/>
    <path class="cls-3" d="M108.62,717.51h27.71s.07,0,.09-.03c.02-.02.03-.05.03-.09v-7.92s-.01-.07-.03-.09c-.02-.02-.05-.03-.09-.03h-19.45v-38.27s-.01-.07-.03-.09c-.02-.02-.05-.03-.09-.03h-8.13s-.07.01-.09.03c-.02.02-.03.05-.03.09v46.32s0,.07.03.09c.02.02.05.03.09.03Z"/>
    <path class="cls-3" d="M146.12,715c3.65,2.14,7.64,3.21,11.98,3.21s8.33-1.07,11.98-3.21c3.65-2.14,6.55-5.03,8.69-8.67,2.15-3.65,3.22-7.65,3.22-12s-1.07-8.38-3.22-12.07c-2.15-3.69-5.06-6.61-8.73-8.77-3.67-2.16-7.65-3.24-11.95-3.24s-8.28,1.08-11.95,3.24c-3.67,2.16-6.58,5.08-8.73,8.77-2.15,3.69-3.22,7.71-3.22,12.07s1.07,8.36,3.22,12c2.15,3.65,5.05,6.54,8.69,8.67ZM144.72,686.03c1.29-2.43,3.11-4.34,5.44-5.72,2.34-1.38,4.98-2.07,7.94-2.07s5.61.69,7.94,2.07c2.33,1.38,4.15,3.29,5.44,5.72,1.29,2.43,1.94,5.2,1.94,8.3s-.65,5.86-1.94,8.26c-1.29,2.41-3.1,4.28-5.41,5.62-2.31,1.34-4.97,2.01-7.98,2.01s-5.66-.67-7.98-2.01c-2.31-1.34-4.12-3.22-5.41-5.62-1.29-2.41-1.94-5.16-1.94-8.26s.65-5.87,1.94-8.3Z"/>
    <path class="cls-3" d="M181.43,717.48s.02.03.06.03h8.63c.08,0,.14,0,.16-.03.02-.02.03-.05.03-.09l4.18-11.57h15.79l4.18,11.57s.02.07.06.09c.04.02.08.03.12.03h8.63s.06-.08.06-.13l-16.76-46.32c0-.08-.06-.13-.19-.13h-8.01c-.13,0-.19.04-.19.13l-16.76,46.32v.09ZM202.39,683.96l4.64,12.86h-9.29l4.64-12.86Z"/>
    <path class="cls-3" d="M252.46,714.28c3.4-2.16,5.97-5.02,7.73-8.58,1.75-3.56,2.63-7.37,2.63-11.44s-.88-8-2.63-11.56c-1.75-3.56-4.33-6.41-7.73-8.55-3.4-2.14-7.45-3.21-12.17-3.21h-15.45s-.07.01-.09.03c-.02.02-.03.05-.03.09v46.32s0,.07.03.09c.02.02.05.03.09.03h15.45c4.71,0,8.77-1.08,12.17-3.24ZM233.1,679.11h7.19c3.21,0,5.87.62,7.98,1.85,2.11,1.24,3.66,2.99,4.66,5.25s1.5,4.94,1.5,8.04-.51,5.66-1.53,7.92c-1.02,2.26-2.59,4.02-4.69,5.28-2.11,1.26-4.74,1.89-7.91,1.89h-7.19v-30.23Z"/>
    <path class="cls-3" d="M55.52,730.12c-2.29-1.36-4.86-2.04-7.69-2.04h-15.39s-.07.01-.09.03c-.02.02-.03.05-.03.09v46.32s0,.07.03.09c.02.02.05.03.09.03h8.13s.07,0,.09-.03c.02-.02.03-.05.03-.09v-18.04h7.13c2.84,0,5.4-.7,7.69-2.11,2.29-1.4,4.09-3.21,5.38-5.41,1.29-2.2,1.94-4.45,1.94-6.76s-.65-4.61-1.94-6.79c-1.29-2.18-3.09-3.95-5.38-5.31ZM53.7,745.3c-.5.92-1.25,1.66-2.25,2.2-1,.55-2.21.82-3.63.82h-7.13v-12.07h7.13c1.42,0,2.63.26,3.63.79,1,.52,1.75,1.24,2.25,2.14.5.9.75,1.92.75,3.05s-.25,2.16-.75,3.08Z"/>
    <path class="cls-3" d="M75.16,728.08h-8.13s-.07.01-.09.03c-.02.02-.03.05-.03.09v46.32s0,.07.03.09c.02.02.05.03.09.03h8.13s.07,0,.09-.03c.02-.02.03-.05.03-.09v-46.32s-.01-.07-.03-.09c-.02-.02-.05-.03-.09-.03Z"/>
    <path class="cls-3" d="M153.72,728.08h-32.84s-.07.01-.09.03c-.02.02-.03.05-.03.09v7.92s.01.06.03.08c-2.28-2.7-4.85-4.82-7.72-6.37-3.04-1.63-6.44-2.45-10.2-2.45-4.34,0-8.29,1.08-11.85,3.24-3.57,2.16-6.36,5.07-8.38,8.74-2.02,3.67-3.03,7.66-3.03,11.97s1.01,8.37,3.03,12.04c2.02,3.67,4.82,6.58,8.38,8.74,3.57,2.16,7.52,3.24,11.85,3.24,3.71,0,7.19-.85,10.45-2.55,3.25-1.7,5.94-3.91,8.07-6.63v-.09s-.02-.05-.06-.09l-6.44-4.9s-.07-.05-.09-.03c-.02.02-.05.05-.09.09-1.59,2.01-3.35,3.55-5.29,4.62-1.94,1.07-4.12,1.6-6.54,1.6-2.96,0-5.59-.68-7.88-2.04-2.29-1.36-4.07-3.26-5.32-5.69-1.25-2.43-1.88-5.19-1.88-8.3s.64-5.8,1.91-8.23c1.27-2.43,3.04-4.33,5.32-5.69,2.27-1.36,4.89-2.04,7.85-2.04,2.46,0,4.58.51,6.35,1.54,1.77,1.03,3.6,2.67,5.47,4.93,0,.04.02.07.06.09.04.02.08.01.12-.03l6.26-5.03s.07-.07.09-.09c.02-.02,0-.05-.03-.09-.13-.16-.27-.31-.4-.47.02.02.05.03.08.03h12.26v38.27s0,.07.03.09c.02.02.05.03.09.03h8.13s.07,0,.09-.03c.02-.02.03-.05.03-.09v-38.27h12.2s.07,0,.09-.03c.02-.02.03-.05.03-.09v-7.92s-.01-.07-.03-.09c-.02-.02-.05-.03-.09-.03Z"/>
    <path class="cls-3" d="M191.57,728.08h-8.13s-.07.01-.09.03c-.02.02-.03.05-.03.09v28.53c0,2.18-.39,4.05-1.16,5.62-.77,1.57-1.87,2.77-3.28,3.58-1.42.82-3.04,1.23-4.88,1.23s-3.45-.42-4.85-1.26c-1.4-.84-2.48-2.03-3.25-3.58-.77-1.55-1.16-3.41-1.16-5.59v-28.53s-.01-.07-.03-.09c-.02-.02-.05-.03-.09-.03h-8.13s-.07.01-.09.03c-.02.02-.03.05-.03.09v28.53c0,3.39.79,6.52,2.38,9.36,1.58,2.85,3.73,5.1,6.44,6.76,2.71,1.66,5.65,2.48,8.82,2.48s6.11-.83,8.82-2.48c2.71-1.65,4.87-3.91,6.47-6.76,1.6-2.85,2.41-5.97,2.41-9.36v-28.53s-.01-.07-.03-.09c-.02-.02-.05-.03-.09-.03Z"/>
    <path class="cls-3" d="M219.88,755.06c.43-.21.86-.43,1.28-.69,2.29-1.4,4.09-3.21,5.38-5.41,1.29-2.2,1.94-4.45,1.94-6.76s-.65-4.61-1.94-6.79c-1.29-2.18-3.09-3.95-5.38-5.31-2.29-1.36-4.86-2.04-7.69-2.04h-15.39s-.07.01-.09.03c-.02.02-.03.05-.03.09v46.32s0,.07.03.09c.02.02.05.03.09.03h8.13s.07,0,.09-.03c.02-.02.03-.05.03-.09v-18.04h5.73l9.29,18.1s.02.06.06.06h9.45s.08,0,.13-.03c.04-.02.04-.05,0-.09l-11.1-19.46ZM206.33,736.25h7.13c1.42,0,2.63.26,3.63.79,1,.52,1.75,1.24,2.25,2.14.5.9.75,1.92.75,3.05s-.25,2.16-.75,3.08c-.5.92-1.25,1.66-2.25,2.2-1,.55-2.21.82-3.63.82h-7.13v-12.07Z"/>
    <path class="cls-3" d="M262.82,736.25s.07,0,.09-.03c.02-.02.03-.05.03-.09v-7.92s-.01-.07-.03-.09c-.02-.02-.05-.03-.09-.03h-28.02s-.07.01-.09.03c-.02.02-.03.05-.03.09v46.32s0,.07.03.09c.02.02.05.03.09.03h28.02s.07,0,.09-.03c.02-.02.03-.05.03-.09v-7.92s-.01-.07-.03-.09c-.02-.02-.05-.03-.09-.03h-19.77v-11.38h17.7s.07,0,.09-.03c.02-.02.03-.05.03-.09v-7.29s-.01-.07-.03-.09c-.02-.02-.05-.03-.09-.03h-17.7v-11.31h19.77Z"/>
  </g>
</svg>
